<svg width="200" height="150" xmlns="http://www.w3.org/2000/svg">
  <!-- Modern Webpage Template 3 -->
  <rect width="200" height="150" fill="#ffffff"/>
  <!-- Top Banner -->
  <rect x="0" y="0" width="200" height="35" fill="#1a1a2e"/>
  <rect x="10" y="8" width="50" height="18" fill="#16213e" rx="2"/>
  <rect x="70" y="12" width="12" height="10" fill="#0f3460" rx="1"/>
  <rect x="88" y="12" width="12" height="10" fill="#0f3460" rx="1"/>
  <rect x="106" y="12" width="12" height="10" fill="#0f3460" rx="1"/>
  <rect x="150" y="10" width="40" height="14" fill="#e94560" rx="2"/>
  <!-- Hero Section with Gradient -->
  <rect x="0" y="35" width="200" height="60" fill="#0f3460"/>
  <rect x="20" y="45" width="100" height="10" fill="#e94560" rx="1"/>
  <rect x="20" y="60" width="140" height="6" fill="#533483" rx="1"/>
  <rect x="20" y="70" width="100" height="6" fill="#533483" rx="1"/>
  <rect x="20" y="80" width="50" height="10" fill="#e94560" rx="2"/>
  <!-- Feature Grid -->
  <rect x="0" y="95" width="200" height="55" fill="#16213e"/>
  <rect x="10" y="100" width="55" height="45" fill="#0f3460" rx="2"/>
  <rect x="15" y="105" width="45" height="8" fill="#533483" rx="1"/>
  <rect x="15" y="118" width="45" height="5" fill="#e94560" rx="1"/>
  <rect x="15" y="127" width="35" height="5" fill="#533483" rx="1"/>
  <rect x="75" y="100" width="55" height="45" fill="#0f3460" rx="2"/>
  <rect x="80" y="105" width="45" height="8" fill="#533483" rx="1"/>
  <rect x="80" y="118" width="45" height="5" fill="#e94560" rx="1"/>
  <rect x="80" y="127" width="35" height="5" fill="#533483" rx="1"/>
  <rect x="140" y="100" width="55" height="45" fill="#0f3460" rx="2"/>
  <rect x="145" y="105" width="45" height="8" fill="#533483" rx="1"/>
  <rect x="145" y="118" width="45" height="5" fill="#e94560" rx="1"/>
  <rect x="145" y="127" width="35" height="5" fill="#533483" rx="1"/>
</svg>
