<svg width="200" height="150" xmlns="http://www.w3.org/2000/svg">
  <!-- Modern Webpage Template 2 -->
  <rect width="200" height="150" fill="#f8f9fa"/>
  <!-- Navigation Bar -->
  <rect x="0" y="0" width="200" height="20" fill="#ffffff"/>
  <rect x="10" y="5" width="30" height="10" fill="#6c757d" rx="1"/>
  <rect x="50" y="7" width="8" height="6" fill="#dee2e6" rx="1"/>
  <rect x="62" y="7" width="8" height="6" fill="#dee2e6" rx="1"/>
  <rect x="74" y="7" width="8" height="6" fill="#dee2e6" rx="1"/>
  <rect x="160" y="5" width="30" height="10" fill="#007bff" rx="2"/>
  <!-- Main Content -->
  <rect x="0" y="20" width="200" height="130" fill="#ffffff"/>
  <!-- Left Sidebar -->
  <rect x="0" y="20" width="60" height="130" fill="#f8f9fa"/>
  <rect x="10" y="30" width="40" height="6" fill="#6c757d" rx="1"/>
  <rect x="10" y="42" width="40" height="6" fill="#adb5bd" rx="1"/>
  <rect x="10" y="54" width="40" height="6" fill="#adb5bd" rx="1"/>
  <rect x="10" y="66" width="40" height="6" fill="#adb5bd" rx="1"/>
  <!-- Main Content Area -->
  <rect x="70" y="30" width="120" height="30" fill="#e9ecef" rx="2"/>
  <rect x="80" y="35" width="80" height="6" fill="#495057" rx="1"/>
  <rect x="80" y="45" width="100" height="5" fill="#6c757d" rx="1"/>
  <rect x="80" y="52" width="60" height="5" fill="#6c757d" rx="1"/>
  <!-- Cards -->
  <rect x="70" y="70" width="55" height="40" fill="#ffffff" rx="2" stroke="#dee2e6" stroke-width="1"/>
  <rect x="75" y="75" width="45" height="8" fill="#007bff" rx="1"/>
  <rect x="75" y="88" width="45" height="4" fill="#6c757d" rx="1"/>
  <rect x="75" y="96" width="35" height="4" fill="#6c757d" rx="1"/>
  <rect x="135" y="70" width="55" height="40" fill="#ffffff" rx="2" stroke="#dee2e6" stroke-width="1"/>
  <rect x="140" y="75" width="45" height="8" fill="#28a745" rx="1"/>
  <rect x="140" y="88" width="45" height="4" fill="#6c757d" rx="1"/>
  <rect x="140" y="96" width="35" height="4" fill="#6c757d" rx="1"/>
</svg>
